<svg width="119" height="40" viewBox="0 0 119 40" fill="none" xmlns="http://www.w3.org/2000/svg">
<path d="M8.07156 39.0999H7.16799C6.56561 39.0999 5.86283 38.9999 5.26045 38.8999C4.65807 38.7999 4.15609 38.5999 3.55371 38.3999C3.05172 38.0999 2.54974 37.7999 2.14815 37.3999C1.74657 36.9999 1.34498 36.4999 1.14418 35.9999C0.842993 35.4999 0.742597 34.8999 0.6422 34.2999C0.541803 33.6999 0.441406 33.0999 0.441406 32.3999V8.3999V7.4999C0.441406 6.8999 0.541803 6.1999 0.6422 5.5999C0.742597 5.0999 0.94339 4.4999 1.24458 3.9999C1.54577 3.4999 1.84696 2.9999 2.24855 2.5999C2.65014 2.1999 3.15212 1.8999 3.6541 1.5999C4.15609 1.2999 4.75847 1.1999 5.36085 1.0999C5.96323 0.999902 6.56561 0.899902 7.26839 0.899902H112.283C112.886 0.899902 113.488 0.999902 114.191 1.0999C114.793 1.1999 115.295 1.3999 115.898 1.5999C116.902 2.0999 117.805 2.9999 118.307 3.9999C118.608 4.4999 118.709 5.0999 118.809 5.5999C118.91 6.1999 119.01 6.8999 119.01 7.4999V32.3999C119.01 32.9999 118.91 33.5999 118.809 34.2999C118.709 34.8999 118.508 35.3999 118.307 35.9999C118.006 36.4999 117.705 36.9999 117.303 37.3999C116.902 37.7999 116.4 38.1999 115.898 38.3999C115.396 38.6999 114.793 38.8999 114.191 38.8999C113.589 38.9999 112.986 39.0999 112.283 39.0999H8.07156Z" fill="black"/>
</svg>
