<svg width="193" height="191" viewBox="0 0 193 191" fill="none" xmlns="http://www.w3.org/2000/svg">
<g clip-path="url(#clip0_1406_399)">
<path d="M190.314 49.2109H141.009V31.276H177.683V43.5287C177.683 44.0353 177.885 44.5211 178.245 44.8793C178.605 45.2375 179.093 45.4387 179.601 45.4387C180.11 45.4387 180.598 45.2375 180.958 44.8793C181.317 44.5211 181.52 44.0353 181.52 43.5287V29.366C181.52 28.8595 181.317 28.3737 180.958 28.0155C180.598 27.6573 180.11 27.456 179.601 27.456H139.091C138.583 27.456 138.095 27.6573 137.735 28.0155C137.375 28.3737 137.173 28.8595 137.173 29.366V49.2109H58.2437V27.2459C58.2437 26.7394 58.0416 26.2536 57.6819 25.8954C57.3222 25.5372 56.8344 25.3359 56.3256 25.3359H15.8059C15.2972 25.3359 14.8093 25.5372 14.4496 25.8954C14.0899 26.2536 13.8878 26.7394 13.8878 27.2459V48.9722C13.8835 49.0517 13.8835 49.1314 13.8878 49.2109H3.56848C3.05977 49.2109 2.5719 49.4122 2.21219 49.7704C1.85247 50.1286 1.65039 50.6144 1.65039 51.1209V163.381C1.65039 163.888 1.85247 164.374 2.21219 164.732C2.5719 165.09 3.05977 165.291 3.56848 165.291H132.531C133.04 165.291 133.528 165.09 133.888 164.732C134.247 164.374 134.45 163.888 134.45 163.381C134.45 162.875 134.247 162.389 133.888 162.031C133.528 161.672 133.04 161.471 132.531 161.471H5.48658V81.0602H56.316C56.8248 81.0602 57.3126 80.859 57.6723 80.5008C58.0321 80.1426 58.2341 79.6568 58.2341 79.1502C58.2341 78.6436 58.0321 78.1578 57.6723 77.7996C57.3126 77.4414 56.8248 77.2402 56.316 77.2402H5.48658V53.0309H188.396V161.471H166.971C166.462 161.471 165.974 161.672 165.615 162.031C165.255 162.389 165.053 162.875 165.053 163.381C165.053 163.888 165.255 164.374 165.615 164.732C165.974 165.09 166.462 165.291 166.971 165.291H190.314C190.823 165.291 191.311 165.09 191.67 164.732C192.03 164.374 192.232 163.888 192.232 163.381V51.1209C192.232 50.6144 192.03 50.1286 191.67 49.7704C191.311 49.4122 190.823 49.2109 190.314 49.2109ZM17.6856 48.9722V29.1273H54.4075V49.1823H17.6952C17.7081 49.1127 17.7177 49.0426 17.724 48.9722H17.6856Z" fill="black"/>
<path d="M112.277 77.8038C112.099 77.6262 111.887 77.4854 111.654 77.3892C111.422 77.2931 111.172 77.2437 110.92 77.2437C110.668 77.2437 110.418 77.2931 110.185 77.3892C109.953 77.4854 109.741 77.6262 109.563 77.8038L81.3956 105.9C81.1257 106.167 80.9414 106.507 80.8662 106.878C80.791 107.249 80.8281 107.634 80.973 107.984C81.118 108.334 81.364 108.633 81.68 108.844C81.996 109.054 82.3677 109.166 82.7479 109.166H106.177L81.3956 133.156C81.2014 133.327 81.0441 133.536 80.9334 133.77C80.8226 134.004 80.7607 134.257 80.7513 134.516C80.7419 134.774 80.7852 135.031 80.8787 135.273C80.9722 135.514 81.1138 135.734 81.2951 135.919C81.4764 136.104 81.6935 136.25 81.9332 136.349C82.173 136.448 82.4305 136.498 82.69 136.495C82.9496 136.492 83.2059 136.436 83.4433 136.332C83.6807 136.227 83.8944 136.076 84.0714 135.887L112.219 108.622C112.492 108.356 112.679 108.016 112.757 107.644C112.834 107.272 112.798 106.886 112.654 106.534C112.51 106.183 112.264 105.882 111.947 105.67C111.631 105.459 111.258 105.346 110.877 105.346H87.3897L112.325 80.516C112.502 80.3353 112.641 80.1216 112.734 79.8871C112.827 79.6527 112.873 79.4021 112.868 79.15C112.864 78.8978 112.809 78.649 112.708 78.418C112.606 78.187 112.46 77.9782 112.277 77.8038Z" fill="black"/>
<path d="M22.2697 96.9897C21.7609 96.9897 21.2731 97.191 20.9134 97.5492C20.5536 97.9074 20.3516 98.3932 20.3516 98.8997C20.3516 99.4063 20.5536 99.8921 20.9134 100.25C21.2731 100.609 21.7609 100.81 22.2697 100.81H41.6712C42.1799 100.81 42.6678 100.609 43.0275 100.25C43.3872 99.8921 43.5893 99.4063 43.5893 98.8997C43.5893 98.3932 43.3872 97.9074 43.0275 97.5492C42.6678 97.191 42.1799 96.9897 41.6712 96.9897H22.2697Z" fill="black"/>
<path d="M40.9435 37.2451H37.1744V33.5111C37.1744 33.0045 36.9723 32.5187 36.6126 32.1605C36.2529 31.8023 35.765 31.6011 35.2563 31.6011C34.7476 31.6011 34.2597 31.8023 33.9 32.1605C33.5403 32.5187 33.3382 33.0045 33.3382 33.5111V37.2451H29.6075C29.0988 37.2451 28.611 37.4464 28.2513 37.8045C27.8915 38.1627 27.6895 38.6486 27.6895 39.1551C27.6895 39.6617 27.8915 40.1475 28.2513 40.5057C28.611 40.8639 29.0988 41.0651 29.6075 41.0651H33.367V44.8183C33.367 45.3248 33.5691 45.8107 33.9288 46.1688C34.2885 46.527 34.7764 46.7283 35.2851 46.7283C35.7938 46.7283 36.2817 46.527 36.6414 46.1688C37.0011 45.8107 37.2032 45.3248 37.2032 44.8183V41.0651H40.9722C41.481 41.0651 41.9688 40.8639 42.3285 40.5057C42.6883 40.1475 42.8903 39.6617 42.8903 39.1551C42.8903 38.6486 42.6883 38.1627 42.3285 37.8045C41.9688 37.4464 41.481 37.2451 40.9722 37.2451H40.9435Z" fill="black"/>
<path d="M153.67 38.3335C153.161 38.3335 152.673 38.5347 152.314 38.8929C151.954 39.2511 151.752 39.7369 151.752 40.2435C151.752 40.7501 151.954 41.2359 152.314 41.5941C152.673 41.9523 153.161 42.1535 153.67 42.1535H165.025C165.534 42.1535 166.022 41.9523 166.381 41.5941C166.741 41.2359 166.943 40.7501 166.943 40.2435C166.943 39.7369 166.741 39.2511 166.381 38.8929C166.022 38.5347 165.534 38.3335 165.025 38.3335H153.67Z" fill="black"/>
<path d="M154.648 161.471H141.49C140.982 161.471 140.494 161.672 140.134 162.031C139.774 162.389 139.572 162.875 139.572 163.381C139.572 163.888 139.774 164.374 140.134 164.732C140.494 165.09 140.982 165.291 141.49 165.291H154.648C155.157 165.291 155.645 165.09 156.005 164.732C156.364 164.374 156.567 163.888 156.567 163.381C156.567 162.875 156.364 162.389 156.005 162.031C155.645 161.672 155.157 161.471 154.648 161.471Z" fill="black"/>
</g>
<defs>
<clipPath id="clip0_1406_399">
<rect width="191.809" height="191" fill="white" transform="translate(0.835938)"/>
</clipPath>
</defs>
</svg>
