<svg width="136" height="40" viewBox="0 0 136 40" fill="none" xmlns="http://www.w3.org/2000/svg">
<g clip-path="url(#clip0_1406_189)">
<path d="M130.67 40H5.17414C2.36303 40 0.154297 37.8 0.154297 35V5C0.154297 2.2 2.36303 0 5.17414 0H130.67C133.481 0 135.69 2.2 135.69 5V35C135.69 37.8 133.481 40 130.67 40Z" fill="black"/>
<path d="M130.67 0.8C132.979 0.8 134.887 2.7 134.887 5V35C134.887 37.3 132.979 39.2 130.67 39.2H5.17414C2.86501 39.2 0.957472 37.3 0.957472 35V5C0.957472 2.7 2.86501 0.8 5.17414 0.8H130.67ZM130.67 0H5.17414C2.36303 0 0.154297 2.3 0.154297 5V35C0.154297 37.8 2.36303 40 5.17414 40H130.67C133.481 40 135.69 37.8 135.69 35V5C135.69 2.3 133.481 0 130.67 0Z" fill="#A6A6A6"/>
<path d="M47.7426 10.1999C47.7426 10.9999 47.5418 11.6999 47.0398 12.1999C46.4374 12.7999 45.7346 13.0999 44.831 13.0999C43.9275 13.0999 43.2247 12.7999 42.6223 12.1999C42.0199 11.5999 41.7188 10.8999 41.7188 9.9999C41.7188 9.0999 42.0199 8.3999 42.6223 7.7999C43.2247 7.1999 43.9275 6.8999 44.831 6.8999C45.2326 6.8999 45.6342 6.9999 46.0358 7.1999C46.4374 7.3999 46.7386 7.5999 46.9394 7.8999L46.4374 8.3999C46.0358 7.8999 45.5338 7.6999 44.831 7.6999C44.2287 7.6999 43.6263 7.8999 43.2247 8.3999C42.7227 8.7999 42.5219 9.3999 42.5219 10.0999C42.5219 10.7999 42.7227 11.3999 43.2247 11.7999C43.7267 12.1999 44.2287 12.4999 44.831 12.4999C45.5338 12.4999 46.0358 12.2999 46.5378 11.7999C46.839 11.4999 47.0398 11.0999 47.0398 10.5999H44.831V9.7999H47.7426V10.1999ZM52.3608 7.6999H49.6501V9.5999H52.16V10.2999H49.6501V12.1999H52.3608V12.9999H48.8469V6.9999H52.3608V7.6999ZM55.6739 12.9999H54.8707V7.6999H53.164V6.9999H57.3807V7.6999H55.6739V12.9999ZM60.2922 12.9999V6.9999H61.0953V12.9999H60.2922ZM64.5088 12.9999H63.7057V7.6999H61.9989V6.9999H66.1152V7.6999H64.4084L64.5088 12.9999ZM74.0465 12.1999C73.4441 12.7999 72.7414 13.0999 71.8378 13.0999C70.9342 13.0999 70.2314 12.7999 69.6291 12.1999C69.0267 11.5999 68.7255 10.8999 68.7255 9.9999C68.7255 9.0999 69.0267 8.3999 69.6291 7.7999C70.2314 7.1999 70.9342 6.8999 71.8378 6.8999C72.7414 6.8999 73.4441 7.1999 74.0465 7.7999C74.6489 8.3999 74.9501 9.0999 74.9501 9.9999C74.9501 10.8999 74.6489 11.5999 74.0465 12.1999ZM70.2314 11.6999C70.633 12.0999 71.2354 12.3999 71.8378 12.3999C72.4402 12.3999 73.0426 12.1999 73.4441 11.6999C73.8457 11.2999 74.1469 10.6999 74.1469 9.9999C74.1469 9.2999 73.9461 8.6999 73.4441 8.2999C73.0426 7.8999 72.4402 7.5999 71.8378 7.5999C71.2354 7.5999 70.633 7.7999 70.2314 8.2999C69.8299 8.6999 69.5287 9.2999 69.5287 9.9999C69.5287 10.6999 69.7295 11.2999 70.2314 11.6999ZM76.0545 12.9999V6.9999H76.958L79.8695 11.6999V6.9999H80.6727V12.9999H79.8695L76.7572 8.0999V12.9999H76.0545Z" fill="white" stroke="white" stroke-width="0.2" stroke-miterlimit="10"/>
<path d="M68.5251 21.8001C66.1156 21.8001 64.208 23.6001 64.208 26.1001C64.208 28.5001 66.1156 30.4001 68.5251 30.4001C70.9346 30.4001 72.8422 28.6001 72.8422 26.1001C72.8422 23.5001 70.9346 21.8001 68.5251 21.8001ZM68.5251 28.6001C67.22 28.6001 66.1156 27.5001 66.1156 26.0001C66.1156 24.5001 67.22 23.4001 68.5251 23.4001C69.8303 23.4001 70.9346 24.4001 70.9346 26.0001C70.9346 27.5001 69.8303 28.6001 68.5251 28.6001ZM59.1882 21.8001C56.7787 21.8001 54.8711 23.6001 54.8711 26.1001C54.8711 28.5001 56.7787 30.4001 59.1882 30.4001C61.5977 30.4001 63.5053 28.6001 63.5053 26.1001C63.5053 23.5001 61.5977 21.8001 59.1882 21.8001ZM59.1882 28.6001C57.883 28.6001 56.7787 27.5001 56.7787 26.0001C56.7787 24.5001 57.883 23.4001 59.1882 23.4001C60.4934 23.4001 61.5977 24.4001 61.5977 26.0001C61.5977 27.5001 60.4934 28.6001 59.1882 28.6001ZM48.0442 23.1001V24.9001H52.3612C52.2608 25.9001 51.8592 26.7001 51.3573 27.2001C50.7549 27.8001 49.7509 28.5001 48.0442 28.5001C45.3334 28.5001 43.3255 26.4001 43.3255 23.7001C43.3255 21.0001 45.4338 18.9001 48.0442 18.9001C49.4497 18.9001 50.5541 19.5001 51.3573 20.2001L52.6624 18.9001C51.558 17.9001 50.1525 17.1001 48.1446 17.1001C44.5303 17.1001 41.418 20.1001 41.418 23.7001C41.418 27.3001 44.5303 30.3001 48.1446 30.3001C50.1525 30.3001 51.5581 29.7001 52.7628 28.4001C53.9676 27.2001 54.3692 25.5001 54.3692 24.2001C54.3692 23.8001 54.3692 23.4001 54.2688 23.1001H48.0442ZM93.6243 24.5001C93.2227 23.5001 92.2188 21.8001 90.01 21.8001C87.8013 21.8001 85.9942 23.5001 85.9942 26.1001C85.9942 28.5001 87.8013 30.4001 90.2108 30.4001C92.1184 30.4001 93.3231 29.2001 93.7247 28.5001L92.3192 27.5001C91.8172 28.2001 91.2148 28.7001 90.2108 28.7001C89.2069 28.7001 88.6045 28.3001 88.1025 27.4001L93.8251 25.0001L93.6243 24.5001ZM87.8013 25.9001C87.8013 24.3001 89.1065 23.4001 90.01 23.4001C90.7128 23.4001 91.4156 23.8001 91.6164 24.3001L87.8013 25.9001ZM83.0826 30.0001H84.9902V17.5001H83.0826V30.0001ZM80.0707 22.7001C79.5688 22.2001 78.7656 21.7001 77.7616 21.7001C75.6533 21.7001 73.6453 23.6001 73.6453 26.0001C73.6453 28.4001 75.5529 30.2001 77.7616 30.2001C78.7656 30.2001 79.5688 29.7001 79.9704 29.2001H80.0707V29.8001C80.0707 31.4001 79.1672 32.3001 77.7616 32.3001C76.6573 32.3001 75.8541 31.5001 75.6533 30.8001L74.0469 31.5001C74.5489 32.6001 75.7537 34.0001 77.862 34.0001C80.0707 34.0001 81.8779 32.7001 81.8779 29.6001V22.0001H80.0707V22.7001ZM77.862 28.6001C76.5569 28.6001 75.4525 27.5001 75.4525 26.0001C75.4525 24.5001 76.5569 23.4001 77.862 23.4001C79.1672 23.4001 80.1711 24.5001 80.1711 26.0001C80.1711 27.5001 79.1672 28.6001 77.862 28.6001ZM102.359 17.5001H97.841V30.0001H99.7485V25.3001H102.359C104.467 25.3001 106.475 23.8001 106.475 21.4001C106.475 19.0001 104.467 17.5001 102.359 17.5001ZM102.459 23.5001H99.7485V19.2001H102.459C103.865 19.2001 104.668 20.4001 104.668 21.3001C104.568 22.4001 103.764 23.5001 102.459 23.5001ZM114.005 21.7001C112.599 21.7001 111.194 22.3001 110.692 23.6001L112.399 24.3001C112.8 23.6001 113.402 23.4001 114.105 23.4001C115.109 23.4001 116.013 24.0001 116.113 25.0001V25.1001C115.812 24.9001 115.009 24.6001 114.206 24.6001C112.399 24.6001 110.591 25.6001 110.591 27.4001C110.591 29.1001 112.097 30.2001 113.704 30.2001C115.009 30.2001 115.611 29.6001 116.113 29.0001H116.214V30.0001H118.021V25.2001C117.82 23.0001 116.113 21.7001 114.005 21.7001ZM113.804 28.6001C113.202 28.6001 112.298 28.3001 112.298 27.5001C112.298 26.5001 113.402 26.2001 114.306 26.2001C115.109 26.2001 115.511 26.4001 116.013 26.6001C115.812 27.8001 114.808 28.6001 113.804 28.6001ZM124.346 22.0001L122.237 27.4001H122.137L119.928 22.0001H117.92L121.233 29.6001L119.326 33.8001H121.233L126.354 22.0001H124.346ZM107.479 30.0001H109.387V17.5001H107.479V30.0001Z" fill="white"/>
<path d="M10.5949 7.5C10.2938 7.8 10.1934 8.3 10.1934 8.9V31C10.1934 31.6 10.3942 32.1 10.6953 32.4L10.7957 32.5L23.2449 20.1V19.9L10.5949 7.5Z" fill="url(#paint0_linear_1406_189)"/>
<path d="M27.2608 24.3L23.1445 20.2V19.9L27.2608 15.8L27.3612 15.9L32.2806 18.7C33.6862 19.5 33.6862 20.8 32.2806 21.6L27.2608 24.3Z" fill="url(#paint1_linear_1406_189)"/>
<path d="M27.362 24.2L23.1453 20L10.5957 32.5C11.0977 33 11.8005 33 12.704 32.6L27.362 24.2Z" fill="url(#paint2_linear_1406_189)"/>
<path d="M27.362 15.8001L12.704 7.50011C11.8005 7.00011 11.0977 7.10011 10.5957 7.60011L23.1453 20.0001L27.362 15.8001Z" fill="url(#paint3_linear_1406_189)"/>
<path opacity="0.2" d="M27.2616 24.1001L12.704 32.3001C11.9009 32.8001 11.1981 32.7001 10.6961 32.3001L10.5957 32.4001L10.6961 32.5001C11.1981 32.9001 11.9009 33.0001 12.704 32.5001L27.2616 24.1001Z" fill="black"/>
<path opacity="0.12" d="M10.5949 32.3C10.2938 32 10.1934 31.5 10.1934 30.9V31C10.1934 31.6 10.3942 32.1 10.6953 32.4V32.3H10.5949ZM32.2807 21.3L27.2608 24.1L27.3612 24.2L32.2807 21.4C32.9834 21 33.2846 20.5 33.2846 20C33.2846 20.5 32.883 20.9 32.2807 21.3Z" fill="black"/>
<path opacity="0.25" d="M12.7033 7.60005L32.2807 18.7C32.883 19.1 33.2846 19.5 33.2846 20C33.2846 19.5 32.9834 19 32.2807 18.6L12.7033 7.60005C11.2977 6.70005 10.1934 7.30005 10.1934 8.90005V9.00005C10.1934 7.50005 11.2977 6.80005 12.7033 7.60005Z" fill="white"/>
</g>
<defs>
<linearGradient id="paint0_linear_1406_189" x1="22.0352" y1="8.705" x2="5.25229" y2="25.5535" gradientUnits="userSpaceOnUse">
<stop stop-color="#00A0FF"/>
<stop offset="0.007" stop-color="#00A1FF"/>
<stop offset="0.26" stop-color="#00BEFF"/>
<stop offset="0.512" stop-color="#00D2FF"/>
<stop offset="0.76" stop-color="#00DFFF"/>
<stop offset="1" stop-color="#00E3FF"/>
</linearGradient>
<linearGradient id="paint1_linear_1406_189" x1="34.1219" y1="20.05" x2="9.8289" y2="20.05" gradientUnits="userSpaceOnUse">
<stop stop-color="#FFE000"/>
<stop offset="0.409" stop-color="#FFBD00"/>
<stop offset="0.775" stop-color="#FFA500"/>
<stop offset="1" stop-color="#FF9C00"/>
</linearGradient>
<linearGradient id="paint2_linear_1406_189" x1="25.0689" y1="22.285" x2="2.31109" y2="45.1331" gradientUnits="userSpaceOnUse">
<stop stop-color="#FF3A44"/>
<stop offset="1" stop-color="#C31162"/>
</linearGradient>
<linearGradient id="paint3_linear_1406_189" x1="7.44425" y1="0.212112" x2="17.6072" y2="10.4154" gradientUnits="userSpaceOnUse">
<stop stop-color="#32A071"/>
<stop offset="0.069" stop-color="#2DA771"/>
<stop offset="0.476" stop-color="#15CF74"/>
<stop offset="0.801" stop-color="#06E775"/>
<stop offset="1" stop-color="#00F076"/>
</linearGradient>
<clipPath id="clip0_1406_189">
<rect width="135.536" height="40" fill="white" transform="translate(0.154297)"/>
</clipPath>
</defs>
</svg>
