<svg width="67" height="67" viewBox="0 0 67 67" fill="none" xmlns="http://www.w3.org/2000/svg">
<g clip-path="url(#clip0_1406_254)">
<path d="M62.8125 6.27385L46.0478 6.27392V2.10107C46.0478 0.944277 45.1109 0.00732422 43.9541 0.00732422C42.7973 0.00732422 41.8603 0.944277 41.8603 2.10107V6.27287H25.1103V2.10107C25.1103 0.944277 24.1734 0.00732422 23.0166 0.00732422C21.8598 0.00732422 20.9228 0.944277 20.9228 2.10107V6.27287H4.1875C1.87495 6.27287 0 8.14782 0 10.4604V62.8041C0 65.1166 1.87495 66.9916 4.1875 66.9916H62.8125C65.125 66.9916 67 65.1166 67 62.8041V10.4604C67 8.14881 65.125 6.27385 62.8125 6.27385ZM62.8125 62.8041H4.1875V10.4604H20.9228V12.5698C20.9228 13.7266 21.8598 14.6636 23.0166 14.6636C24.1734 14.6636 25.1103 13.7266 25.1103 12.5698V10.4614H41.8603V12.5709C41.8603 13.7277 42.7973 14.6646 43.9541 14.6646C45.1109 14.6646 46.0478 13.7277 46.0478 12.5709V10.4614H62.8125V62.8041ZM48.1562 33.4926H52.3438C53.4995 33.4926 54.4375 32.5546 54.4375 31.3989V27.2114C54.4375 26.0556 53.4995 25.1176 52.3438 25.1176H48.1562C47.0005 25.1176 46.0625 26.0556 46.0625 27.2114V31.3989C46.0625 32.5546 47.0005 33.4926 48.1562 33.4926ZM48.1562 50.2416H52.3438C53.4995 50.2416 54.4375 49.3046 54.4375 48.1478V43.9603C54.4375 42.8046 53.4995 41.8666 52.3438 41.8666H48.1562C47.0005 41.8666 46.0625 42.8046 46.0625 43.9603V48.1478C46.0625 49.3057 47.0005 50.2416 48.1562 50.2416ZM35.5938 41.8666H31.4062C30.2505 41.8666 29.3125 42.8046 29.3125 43.9603V48.1478C29.3125 49.3046 30.2505 50.2416 31.4062 50.2416H35.5938C36.7495 50.2416 37.6875 49.3046 37.6875 48.1478V43.9603C37.6875 42.8056 36.7495 41.8666 35.5938 41.8666ZM35.5938 25.1176H31.4062C30.2505 25.1176 29.3125 26.0556 29.3125 27.2114V31.3989C29.3125 32.5546 30.2505 33.4926 31.4062 33.4926H35.5938C36.7495 33.4926 37.6875 32.5546 37.6875 31.3989V27.2114C37.6875 26.0546 36.7495 25.1176 35.5938 25.1176ZM18.8438 25.1176H14.6562C13.5005 25.1176 12.5625 26.0556 12.5625 27.2114V31.3989C12.5625 32.5546 13.5005 33.4926 14.6562 33.4926H18.8438C19.9995 33.4926 20.9375 32.5546 20.9375 31.3989V27.2114C20.9375 26.0546 19.9995 25.1176 18.8438 25.1176ZM18.8438 41.8666H14.6562C13.5005 41.8666 12.5625 42.8046 12.5625 43.9603V48.1478C12.5625 49.3046 13.5005 50.2416 14.6562 50.2416H18.8438C19.9995 50.2416 20.9375 49.3046 20.9375 48.1478V43.9603C20.9375 42.8056 19.9995 41.8666 18.8438 41.8666Z" fill="#DCDCDC"/>
</g>
<defs>
<clipPath id="clip0_1406_254">
<rect width="67" height="67" fill="white"/>
</clipPath>
</defs>
</svg>
