<svg width="56" height="56" viewBox="0 0 56 56" fill="none" xmlns="http://www.w3.org/2000/svg">
<path d="M25.6667 7H14C10.134 7 7 10.134 7 14V16.3333" stroke="#171717" stroke-width="2.5" stroke-linecap="round" stroke-linejoin="round"/>
<path d="M39.666 49H41.9993C45.8653 49 48.9993 45.866 48.9993 42V28" stroke="#171717" stroke-width="2.5" stroke-linecap="round" stroke-linejoin="round"/>
<path d="M28.7222 32.8612H16.1111C14.9452 32.8612 14 31.9161 14 30.7501V23.3335" stroke="#171717" stroke-width="2.5" stroke-linecap="round" stroke-linejoin="round"/>
<path d="M26.834 49C28.767 49 30.334 47.433 30.334 45.5C30.334 43.567 28.767 42 26.834 42C24.901 42 23.334 43.567 23.334 45.5C23.334 47.433 24.901 49 26.834 49Z" stroke="#171717" stroke-width="2.5" stroke-linecap="round" stroke-linejoin="round"/>
<path d="M7 23.3335H14.9444C18.2669 23.3335 21.3954 24.8977 23.3889 27.5557L25.9441 30.9627C26.3462 31.4988 26.8676 31.9339 27.467 32.2336L32.4203 34.7103C34.0013 35.5008 35 37.1167 35 38.8843V42.3501C35 44.0898 33.5897 45.5001 31.85 45.5001H30.3333" stroke="#171717" stroke-width="2.5" stroke-linecap="round" stroke-linejoin="round"/>
<path d="M23.3333 45.5H7" stroke="#171717" stroke-width="2.5" stroke-linecap="round" stroke-linejoin="round"/>
<path d="M32.666 12.8334C32.666 8.32309 36.3224 4.66675 40.8327 4.66675C45.343 4.66675 48.9993 8.32309 48.9993 12.8334" stroke="#171717" stroke-width="2.5" stroke-linecap="round" stroke-linejoin="round"/>
<path d="M32.666 12.8335C32.666 16.7096 36.9968 20.8551 39.3503 22.8229C40.2201 23.5034 41.4417 23.5038 42.3119 22.8237C44.6675 20.8561 48.9993 16.7101 48.9993 12.8335" stroke="#171717" stroke-width="2.5" stroke-linecap="round" stroke-linejoin="round"/>
<path d="M40.418 12.4222L40.4191 12.4212C40.6466 12.1943 41.0149 12.1946 41.242 12.422C41.469 12.6493 41.4689 13.0177 41.2417 13.2449C41.0145 13.4721 40.6462 13.4722 40.4188 13.2451C40.1915 13.0181 40.1911 12.6497 40.418 12.4222Z" stroke="#171717" stroke-width="2.5" stroke-linecap="round" stroke-linejoin="round"/>
</svg>
