<svg width="50" height="50" viewBox="0 0 50 50" fill="none" xmlns="http://www.w3.org/2000/svg">
<g clip-path="url(#clip0_1406_161)">
<path d="M24.817 8.72238V2.14309C24.817 1.57471 25.0428 1.0296 25.4447 0.627696C25.8466 0.225789 26.3917 0 26.9601 0C27.5285 0 28.0736 0.225789 28.4755 0.627696C28.8774 1.0296 29.1032 1.57471 29.1032 2.14309V8.72238C29.1032 9.29076 28.8774 9.83587 28.4755 10.2378C28.0736 10.6397 27.5285 10.8655 26.9601 10.8655C26.3917 10.8655 25.8466 10.6397 25.4447 10.2378C25.0428 9.83587 24.817 9.29076 24.817 8.72238ZM39.8186 16.2018C40.1007 16.2034 40.3803 16.1493 40.6414 16.0427C40.9025 15.936 41.14 15.7789 41.3402 15.5803L46.0336 10.9298C46.4327 10.5282 46.6568 9.98506 46.6568 9.41888C46.6568 8.85271 46.4327 8.30954 46.0336 7.908C45.632 7.50885 45.0889 7.28481 44.5227 7.28481C43.9565 7.28481 43.4134 7.50885 43.0118 7.908L38.3613 12.5585C38.0676 12.8581 37.8683 13.2372 37.7881 13.649C37.7078 14.0607 37.7502 14.487 37.9099 14.8749C38.0696 15.2628 38.3397 15.5953 38.6866 15.8311C39.0335 16.067 39.442 16.1959 39.8615 16.2018H39.8186ZM12.5371 38.3613L7.88657 43.0118C7.6857 43.2111 7.52627 43.4481 7.41747 43.7092C7.30867 43.9704 7.25265 44.2505 7.25265 44.5334C7.25265 44.8163 7.30867 45.0964 7.41747 45.3576C7.52627 45.6188 7.6857 45.8558 7.88657 46.055C8.0858 46.2559 8.32283 46.4153 8.58398 46.5241C8.84514 46.6329 9.12525 46.6889 9.40817 46.6889C9.69108 46.6889 9.97119 46.6329 10.2323 46.5241C10.4935 46.4153 10.7305 46.2559 10.9298 46.055L15.5803 41.4045C15.7801 41.2047 15.9386 40.9675 16.0467 40.7064C16.1549 40.4453 16.2105 40.1655 16.2105 39.8829C16.2105 39.6003 16.1549 39.3205 16.0467 39.0594C15.9386 38.7984 15.7801 38.5611 15.5803 38.3613C15.3804 38.1615 15.1432 38.003 14.8822 37.8949C14.6211 37.7867 14.3413 37.7311 14.0587 37.7311C13.7761 37.7311 13.4963 37.7867 13.2352 37.8949C12.9741 38.003 12.7369 38.1615 12.5371 38.3613ZM10.844 27.0887C10.844 26.5203 10.6182 25.9752 10.2163 25.5733C9.81443 25.1714 9.26933 24.9456 8.70095 24.9456H2.14309C1.57471 24.9456 1.0296 25.1714 0.627697 25.5733C0.22579 25.9752 0 26.5203 0 27.0887C0 27.657 0.22579 28.2022 0.627697 28.6041C1.0296 29.006 1.57471 29.2318 2.14309 29.2318H8.70095C9.26933 29.2318 9.81443 29.006 10.2163 28.6041C10.6182 28.2022 10.844 27.657 10.844 27.0887ZM10.844 8.01516C10.4364 7.76964 9.95862 7.66679 9.48605 7.72281C9.01348 7.77884 8.57301 7.99055 8.23407 8.32458C7.89512 8.65861 7.677 9.09595 7.61408 9.56765C7.55116 10.0393 7.64703 10.5186 7.88657 10.9298L12.5371 15.5803C12.7373 15.7789 12.9748 15.936 13.2359 16.0427C13.497 16.1493 13.7766 16.2034 14.0587 16.2018C14.3407 16.2034 14.6203 16.1493 14.8814 16.0427C15.1425 15.936 15.38 15.7789 15.5803 15.5803C15.9794 15.1787 16.2035 14.6356 16.2035 14.0694C16.2035 13.5032 15.9794 12.96 15.5803 12.5585L10.844 8.01516ZM48.4981 49.3768C48.0966 49.776 47.5534 50 46.9873 50C46.4211 50 45.8779 49.776 45.4764 49.3768L37.697 41.5974L32.1678 48.7767C31.9681 49.0361 31.7117 49.2463 31.4183 49.3911C31.1248 49.536 30.802 49.6118 30.4747 49.6125H30.1104C29.7254 49.5452 29.3661 49.3738 29.0715 49.1169C28.7768 48.8601 28.558 48.5275 28.4388 48.1552L20.9166 24.3026C20.7945 23.9268 20.7787 23.5245 20.871 23.1402C20.9633 22.7559 21.16 22.4047 21.4394 22.1252C21.7189 21.8458 22.0702 21.6491 22.4544 21.5568C22.8387 21.4645 23.241 21.4803 23.6169 21.6024L47.3409 29.2318C47.7165 29.3484 48.0528 29.5662 48.3129 29.8613C48.573 30.1563 48.7468 30.5173 48.8154 30.9046C48.8841 31.2919 48.8447 31.6906 48.7018 32.0571C48.5589 32.4235 48.3179 32.7436 48.0052 32.9822L40.8259 38.5113L48.5839 46.2693C48.9765 46.6699 49.1965 47.2085 49.1965 47.7695C49.1965 48.3304 48.9765 48.869 48.5839 49.2696L48.4981 49.3768ZM35.8753 36.9469L36.0253 36.8183L36.1754 36.6897L42.0474 32.1678L26.1671 27.0887L31.2463 42.9475L35.8753 36.9469Z" fill="#171717"/>
</g>
<defs>
<clipPath id="clip0_1406_161">
<rect width="50" height="50" fill="white"/>
</clipPath>
</defs>
</svg>
