<svg width="74" height="70" viewBox="0 0 74 70" fill="none" xmlns="http://www.w3.org/2000/svg">
<path d="M56.2493 69.6252H18.2077V24.6668L42.416 0.458496L46.7389 4.78141C47.1424 5.18489 47.4744 5.73245 47.7349 6.42412C47.9955 7.11579 48.1246 7.77863 48.1223 8.41266V9.62308L44.3181 24.6668H66.6243C68.4688 24.6668 70.0827 25.3585 71.466 26.7418C72.8493 28.1252 73.541 29.7391 73.541 31.5835V38.5002C73.541 38.9036 73.4834 39.3359 73.3681 39.797C73.2528 40.2581 73.1375 40.6904 73.0223 41.0939L62.6473 65.4752C62.1285 66.6279 61.2639 67.6078 60.0535 68.4147C58.8431 69.2217 57.575 69.6252 56.2493 69.6252ZM25.1243 62.7085H56.2493L66.6243 38.5002V31.5835H35.4993L40.1681 12.5627L25.1243 27.6064V62.7085ZM18.2077 24.6668V31.5835H7.83268V62.7085H18.2077V69.6252H0.916016V24.6668H18.2077Z" fill="#E61717"/>
</svg>
